<svg xmlns="http://www.w3.org/2000/svg" width="24" height="24" viewBox="0 0 32 32" fill="none">
  <path fill="#FFFFFF" d="M16 2.667C8.82 2.667 3 8.487 3 15.667c0 2.747.72 5.44 2.087 7.807L3 29l5.7-2.043a13.004 13.004 0 007.3 2.157c7.18 0 13-5.82 13-13S23.18 2.667 16 2.667zm0 23.667c-2.2 0-4.34-.587-6.213-1.7l-.444-.264-3.38 1.21 1.113-3.493-.29-.453A10.31 10.31 0 015.667 15.667c0-5.7 4.633-10.333 10.333-10.333 5.7 0 10.333 4.633 10.333 10.333 0 5.7-4.633 10.334-10.333 10.334zm5.913-7.68c-.323-.163-1.92-.947-2.217-1.053-.297-.107-.513-.163-.73.163-.217.323-.84 1.053-1.03 1.27-.19.217-.38.243-.703.08-.323-.163-1.367-.503-2.603-1.603-.963-.857-1.613-1.913-1.803-2.237-.19-.323-.02-.497.143-.66.147-.147.323-.38.487-.57.163-.19.217-.323.323-.54.107-.217.053-.407-.027-.57-.08-.163-.73-1.763-1-2.413-.263-.633-.53-.547-.73-.557-.19-.01-.407-.013-.623-.013s-.57.08-.867.407c-.297.323-1.137 1.11-1.137 2.71 0 1.6 1.167 3.143 1.33 3.36.163.217 2.297 3.513 5.563 4.93.777.337 1.383.54 1.857.693.78.25 1.49.213 2.05.13.627-.093 1.92-.783 2.19-1.54.27-.757.27-1.407.19-1.54-.08-.133-.297-.217-.62-.38z"></path>
</svg>
